<svg width="4217" height="1673" xmlns="http://www.w3.org/2000/svg" xmlns:xlink="http://www.w3.org/1999/xlink" xml:space="preserve" overflow="hidden"><g transform="translate(-18 -513)"><g><rect x="0" y="0" width="589" height="533" stroke="#000000" stroke-width="9.16667" stroke-linecap="butt" stroke-linejoin="round" stroke-miterlimit="10" stroke-opacity="1" fill="#FFFFFF" fill-opacity="1" transform="matrix(-1 0 0 1 627.5 821.5)"/><text fill="#000000" fill-opacity="1" font-family="Meiryo,Meiryo_MSFontService,sans-serif" font-style="normal" font-variant="normal" font-weight="400" font-stretch="normal" font-size="83" text-anchor="start" direction="ltr" writing-mode="lr-tb" unicode-bidi="normal" text-decoration="none" transform="matrix(1 0 0 1 71.3856 907)">ゲージ</text><text fill="#000000" fill-opacity="1" font-family="Meiryo,Meiryo_MSFontService,sans-serif" font-style="normal" font-variant="normal" font-weight="400" font-stretch="normal" font-size="83" text-anchor="start" direction="ltr" writing-mode="lr-tb" unicode-bidi="normal" text-decoration="none" transform="matrix(1 0 0 1 71.3856 1006)">レーダー</text><text fill="#000000" fill-opacity="1" font-family="Meiryo,Meiryo_MSFontService,sans-serif" font-style="normal" font-variant="normal" font-weight="400" font-stretch="normal" font-size="83" text-anchor="start" direction="ltr" writing-mode="lr-tb" unicode-bidi="normal" text-decoration="none" transform="matrix(1 0 0 1 71.3856 1105)">ゲージ情報</text><text fill="#000000" fill-opacity="1" font-family="Meiryo,Meiryo_MSFontService,sans-serif" font-style="normal" font-variant="normal" font-weight="400" font-stretch="normal" font-size="83" text-anchor="start" direction="ltr" writing-mode="lr-tb" unicode-bidi="normal" text-decoration="none" transform="matrix(1 0 0 1 71.3856 1204)">レーダー情報</text><text fill="#000000" fill-opacity="1" font-family="Meiryo,Meiryo_MSFontService,sans-serif" font-style="normal" font-variant="normal" font-weight="400" font-stretch="normal" font-size="83" text-anchor="start" direction="ltr" writing-mode="lr-tb" unicode-bidi="normal" text-decoration="none" transform="matrix(1 0 0 1 71.3856 1303)">モデル情報</text><text fill="#000000" fill-opacity="1" font-family="Meiryo,Meiryo_MSFontService,sans-serif" font-style="normal" font-variant="normal" font-weight="700" font-stretch="normal" font-size="83" text-anchor="start" direction="ltr" writing-mode="lr-tb" unicode-bidi="normal" text-decoration="none" transform="matrix(1 0 0 1 126.386 1457)">入力語集合</text><text fill="#000000" fill-opacity="1" font-family="Meiryo,Meiryo_MSFontService,sans-serif" font-style="normal" font-variant="normal" font-weight="700" font-stretch="normal" font-size="83" text-anchor="start" direction="ltr" writing-mode="lr-tb" unicode-bidi="normal" text-decoration="none" transform="matrix(1 0 0 1 983.984 1430)">完全照合概念の</text><text fill="#000000" fill-opacity="1" font-family="Meiryo,Meiryo_MSFontService,sans-serif" font-style="normal" font-variant="normal" font-weight="700" font-stretch="normal" font-size="83" text-anchor="start" direction="ltr" writing-mode="lr-tb" unicode-bidi="normal" text-decoration="none" transform="matrix(1 0 0 1 1107.73 1529)">概念階層</text><text fill="#000000" fill-opacity="1" font-family="Meiryo,Meiryo_MSFontService,sans-serif" font-style="normal" font-variant="normal" font-weight="700" font-stretch="normal" font-size="83" text-anchor="start" direction="ltr" writing-mode="lr-tb" unicode-bidi="normal" text-decoration="none" transform="matrix(1 0 0 1 1904.09 2007)">部分照合概念の概念階層</text><text fill="#000000" fill-opacity="1" font-family="Meiryo,Meiryo_MSFontService,sans-serif" font-style="normal" font-variant="normal" font-weight="700" font-stretch="normal" font-size="83" text-anchor="start" direction="ltr" writing-mode="lr-tb" unicode-bidi="normal" text-decoration="none" transform="matrix(1 0 0 1 1945.34 2106)">（語尾による階層化）</text><text fill="#000000" fill-opacity="1" font-family="Meiryo,Meiryo_MSFontService,sans-serif" font-style="normal" font-variant="normal" font-weight="400" font-stretch="normal" font-size="83" text-anchor="start" direction="ltr" writing-mode="lr-tb" unicode-bidi="normal" text-decoration="none" transform="matrix(1 0 0 1 676.386 715)">名詞的概念</text><text fill="#000000" fill-opacity="1" font-family="Meiryo,Meiryo_MSFontService,sans-serif" font-style="normal" font-variant="normal" font-weight="400" font-stretch="normal" font-size="83" text-anchor="start" direction="ltr" writing-mode="lr-tb" unicode-bidi="normal" text-decoration="none" transform="matrix(1 0 0 1 951.385 852)">具体物</text><text fill="#000000" fill-opacity="1" font-family="Meiryo,Meiryo_MSFontService,sans-serif" font-style="normal" font-variant="normal" font-weight="400" font-stretch="normal" font-size="83" text-anchor="start" direction="ltr" writing-mode="lr-tb" unicode-bidi="normal" text-decoration="none" transform="matrix(1 0 0 1 1143.89 990)">計器</text><text fill="#000000" fill-opacity="1" font-family="Meiryo,Meiryo_MSFontService,sans-serif" font-style="normal" font-variant="normal" font-weight="400" font-stretch="normal" font-size="83" text-anchor="start" direction="ltr" writing-mode="lr-tb" unicode-bidi="normal" text-decoration="none" transform="matrix(1 0 0 1 1310.6 1127)">ゲージ</text><text fill="#000000" fill-opacity="1" font-family="Meiryo,Meiryo_MSFontService,sans-serif" font-style="normal" font-variant="normal" font-weight="400" font-stretch="normal" font-size="83" text-anchor="start" direction="ltr" writing-mode="lr-tb" unicode-bidi="normal" text-decoration="none" transform="matrix(1 0 0 1 1319.2 1265)">レーダー</text><path d="M0 0 70.4686 0 70.4686 33.2292" stroke="#000000" stroke-width="10.3125" stroke-linecap="butt" stroke-linejoin="round" stroke-miterlimit="10" stroke-opacity="1" fill="none" fill-rule="evenodd" transform="matrix(1.83697e-16 1 1 -1.83697e-16 885 762)"/><path d="M0 0 70.4686 0 70.4686 34.375" stroke="#000000" stroke-width="10.3125" stroke-linecap="butt" stroke-linejoin="round" stroke-miterlimit="10" stroke-opacity="1" fill="none" fill-rule="evenodd" transform="matrix(1.83697e-16 1 1 -1.83697e-16 1077 899)"/><path d="M0 0 70.6548 0 70.6548 50.1301" stroke="#000000" stroke-width="10.3125" stroke-linecap="butt" stroke-linejoin="round" stroke-miterlimit="10" stroke-opacity="1" fill="none" fill-rule="evenodd" transform="matrix(1.83697e-16 1 1 -1.83697e-16 1227 1037)"/><path d="M0 0 208.155 0 208.155 58.7237" stroke="#000000" stroke-width="10.3125" stroke-linecap="butt" stroke-linejoin="round" stroke-miterlimit="10" stroke-opacity="1" fill="none" fill-rule="evenodd" transform="matrix(1.83697e-16 1 1 -1.83697e-16 1227 1037)"/><text fill="#000000" fill-opacity="1" font-family="Meiryo,Meiryo_MSFontService,sans-serif" font-style="normal" font-variant="normal" font-weight="400" font-stretch="normal" font-size="83" text-anchor="start" direction="ltr" writing-mode="lr-tb" unicode-bidi="normal" text-decoration="none" transform="matrix(1 0 0 1 1463 609)">名詞的概念</text><text fill="#000000" fill-opacity="1" font-family="Meiryo,Meiryo_MSFontService,sans-serif" font-style="normal" font-variant="normal" font-weight="400" font-stretch="normal" font-size="83" text-anchor="start" direction="ltr" writing-mode="lr-tb" unicode-bidi="normal" text-decoration="none" transform="matrix(1 0 0 1 1971.18 852)">具体物</text><text fill="#000000" fill-opacity="1" font-family="Meiryo,Meiryo_MSFontService,sans-serif" font-style="normal" font-variant="normal" font-weight="400" font-stretch="normal" font-size="83" text-anchor="start" direction="ltr" writing-mode="lr-tb" unicode-bidi="normal" text-decoration="none" transform="matrix(1 0 0 1 2164.82 967)">計器</text><text fill="#000000" fill-opacity="1" font-family="Meiryo,Meiryo_MSFontService,sans-serif" font-style="normal" font-variant="normal" font-weight="400" font-stretch="normal" font-size="83" text-anchor="start" direction="ltr" writing-mode="lr-tb" unicode-bidi="normal" text-decoration="none" transform="matrix(1 0 0 1 2326.39 1072)">ゲージ</text><text fill="#000000" fill-opacity="1" font-family="Meiryo,Meiryo_MSFontService,sans-serif" font-style="normal" font-variant="normal" font-weight="400" font-stretch="normal" font-size="83" text-anchor="start" direction="ltr" writing-mode="lr-tb" unicode-bidi="normal" text-decoration="none" transform="matrix(1 0 0 1 2325.81 1182)">レーダー</text><path d="M0 0 39.4448 0 39.4448 31.184" stroke="#000000" stroke-width="10.3125" stroke-linecap="butt" stroke-linejoin="round" stroke-miterlimit="10" stroke-opacity="1" fill="none" fill-rule="evenodd" transform="matrix(1.83697e-16 1 1 -1.83697e-16 1907 793)"/><path d="M0 0 47.5519 0 47.5519 34.9477" stroke="#000000" stroke-width="10.3125" stroke-linecap="butt" stroke-linejoin="round" stroke-miterlimit="10" stroke-opacity="1" fill="none" fill-rule="evenodd" transform="matrix(1.83697e-16 1 1 -1.83697e-16 2097 899)"/><path d="M0 0 39.1442 0 39.1442 44.9733" stroke="#000000" stroke-width="10.3125" stroke-linecap="butt" stroke-linejoin="round" stroke-miterlimit="10" stroke-opacity="1" fill="none" fill-rule="evenodd" transform="matrix(1.83697e-16 1 1 -1.83697e-16 2248 1013)"/><path d="M0 0 149.144 0 149.144 44.401" stroke="#000000" stroke-width="10.3125" stroke-linecap="butt" stroke-linejoin="round" stroke-miterlimit="10" stroke-opacity="1" fill="none" fill-rule="evenodd" transform="matrix(1.83697e-16 1 1 -1.83697e-16 2248 1013)"/><text fill="#000000" fill-opacity="1" font-family="Meiryo,Meiryo_MSFontService,sans-serif" font-style="normal" font-variant="normal" font-weight="400" font-stretch="normal" font-size="83" text-anchor="start" direction="ltr" writing-mode="lr-tb" unicode-bidi="normal" text-decoration="none" transform="matrix(1 0 0 1 1823.36 747)">もの</text><path d="M0 0 70.6551 0 70.6551 118.88" stroke="#000000" stroke-width="10.3125" stroke-linecap="butt" stroke-linejoin="round" stroke-miterlimit="10" stroke-opacity="1" fill="none" fill-rule="evenodd" transform="matrix(1.83697e-16 1 1 -1.83697e-16 1671 656)"/><text fill="#000000" fill-opacity="1" font-family="Meiryo,Meiryo_MSFontService,sans-serif" font-style="normal" font-variant="normal" font-weight="400" font-stretch="normal" font-size="83" text-anchor="start" direction="ltr" writing-mode="lr-tb" unicode-bidi="normal" text-decoration="none" transform="matrix(1 0 0 1 1998.68 1237)">抽象物</text><text fill="#000000" fill-opacity="1" font-family="Meiryo,Meiryo_MSFontService,sans-serif" font-style="normal" font-variant="normal" font-weight="400" font-stretch="normal" font-size="83" text-anchor="start" direction="ltr" writing-mode="lr-tb" unicode-bidi="normal" text-decoration="none" transform="matrix(1 0 0 1 2360.76 1489)">ゲージ情報</text><text fill="#000000" fill-opacity="1" font-family="Meiryo,Meiryo_MSFontService,sans-serif" font-style="normal" font-variant="normal" font-weight="400" font-stretch="normal" font-size="83" text-anchor="start" direction="ltr" writing-mode="lr-tb" unicode-bidi="normal" text-decoration="none" transform="matrix(1 0 0 1 2363.05 1627)">レーダー情報</text><path d="M0 0 75.0519 0 75.0519 31.5102" stroke="#000000" stroke-width="10.3125" stroke-linecap="butt" stroke-linejoin="round" stroke-miterlimit="10" stroke-opacity="1" fill="none" fill-rule="evenodd" transform="matrix(1.83697e-16 1 1 -1.83697e-16 2124 1284)"/><path d="M0 0 43.1552 0 43.1552 55.2858" stroke="#000000" stroke-width="10.3125" stroke-linecap="butt" stroke-linejoin="round" stroke-miterlimit="10" stroke-opacity="1" fill="none" fill-rule="evenodd" transform="matrix(1.83697e-16 1 1 -1.83697e-16 2272 1426)"/><path d="M0 0 180.655 0 180.655 57.5775" stroke="#000000" stroke-width="10.3125" stroke-linecap="butt" stroke-linejoin="round" stroke-miterlimit="10" stroke-opacity="1" fill="none" fill-rule="evenodd" transform="matrix(1.83697e-16 1 1 -1.83697e-16 2272 1426)"/><text fill="#000000" fill-opacity="1" font-family="Meiryo,Meiryo_MSFontService,sans-serif" font-style="normal" font-variant="normal" font-weight="400" font-stretch="normal" font-size="83" text-anchor="start" direction="ltr" writing-mode="lr-tb" unicode-bidi="normal" text-decoration="none" transform="matrix(1 0 0 1 2359.61 1764)">モデル情報</text><path d="M0 0 318.155 0 318.155 54.1404" stroke="#000000" stroke-width="10.3125" stroke-linecap="butt" stroke-linejoin="round" stroke-miterlimit="10" stroke-opacity="1" fill="none" fill-rule="evenodd" transform="matrix(1.83697e-16 1 1 -1.83697e-16 2272 1426)"/><path d="M0 0 424.445 0 424.445 58.684" stroke="#000000" stroke-width="10.3125" stroke-linecap="butt" stroke-linejoin="round" stroke-miterlimit="10" stroke-opacity="1" fill="none" fill-rule="evenodd" transform="matrix(1.83697e-16 1 1 -1.83697e-16 1907 793)"/><text fill="#000000" fill-opacity="1" font-family="Meiryo,Meiryo_MSFontService,sans-serif" font-style="normal" font-variant="normal" font-weight="700" font-stretch="normal" font-size="83" text-anchor="start" direction="ltr" writing-mode="lr-tb" unicode-bidi="normal" text-decoration="none" transform="matrix(1 0 0 1 3131.85 2007)">部分照合概念の概念階層</text><text fill="#000000" fill-opacity="1" font-family="Meiryo,Meiryo_MSFontService,sans-serif" font-style="normal" font-variant="normal" font-weight="700" font-stretch="normal" font-size="83" text-anchor="start" direction="ltr" writing-mode="lr-tb" unicode-bidi="normal" text-decoration="none" transform="matrix(1 0 0 1 3173.1 2106)">（語頭による階層化）</text><path d="M726.5 1077.5 809.207 1077.5 809.207 1041.5 891.5 1113.5 809.207 1185.5 809.207 1149.5 726.5 1149.5Z" stroke="#000000" stroke-width="9.16667" stroke-linecap="butt" stroke-linejoin="miter" stroke-miterlimit="8" stroke-opacity="1" fill="#000000" fill-rule="evenodd" fill-opacity="1"/><path d="M1633.5 1077.5 1716.21 1077.5 1716.21 1041.5 1798.5 1113.5 1716.21 1185.5 1716.21 1149.5 1633.5 1149.5Z" stroke="#000000" stroke-width="9.16667" stroke-linecap="butt" stroke-linejoin="miter" stroke-miterlimit="8" stroke-opacity="1" fill="#000000" fill-rule="evenodd" fill-opacity="1"/><path d="M2706.5 1077.5 2789.21 1077.5 2789.21 1041.5 2871.5 1113.5 2789.21 1185.5 2789.21 1149.5 2706.5 1149.5Z" stroke="#000000" stroke-width="9.16667" stroke-linecap="butt" stroke-linejoin="miter" stroke-miterlimit="8" stroke-opacity="1" fill="#000000" fill-rule="evenodd" fill-opacity="1"/><text fill="#000000" fill-opacity="1" font-family="Meiryo,Meiryo_MSFontService,sans-serif" font-style="normal" font-variant="normal" font-weight="400" font-stretch="normal" font-size="83" text-anchor="start" direction="ltr" writing-mode="lr-tb" unicode-bidi="normal" text-decoration="none" transform="matrix(1 0 0 1 2188.89 1379)">情報</text><text fill="#000000" fill-opacity="1" font-family="Meiryo,Meiryo_MSFontService,sans-serif" font-style="normal" font-variant="normal" font-weight="400" font-stretch="normal" font-size="83" text-anchor="start" direction="ltr" writing-mode="lr-tb" unicode-bidi="normal" text-decoration="none" transform="matrix(1 0 0 1 2518.89 609)">名詞的概念</text><text fill="#000000" fill-opacity="1" font-family="Meiryo,Meiryo_MSFontService,sans-serif" font-style="normal" font-variant="normal" font-weight="400" font-stretch="normal" font-size="83" text-anchor="start" direction="ltr" writing-mode="lr-tb" unicode-bidi="normal" text-decoration="none" transform="matrix(1 0 0 1 3027.06 852)">具体物</text><text fill="#000000" fill-opacity="1" font-family="Meiryo,Meiryo_MSFontService,sans-serif" font-style="normal" font-variant="normal" font-weight="400" font-stretch="normal" font-size="83" text-anchor="start" direction="ltr" writing-mode="lr-tb" unicode-bidi="normal" text-decoration="none" transform="matrix(1 0 0 1 3220.71 967)">計器</text><text fill="#000000" fill-opacity="1" font-family="Meiryo,Meiryo_MSFontService,sans-serif" font-style="normal" font-variant="normal" font-weight="400" font-stretch="normal" font-size="83" text-anchor="start" direction="ltr" writing-mode="lr-tb" unicode-bidi="normal" text-decoration="none" transform="matrix(1 0 0 1 3373.1 1072)">ゲージ</text><text fill="#000000" fill-opacity="1" font-family="Meiryo,Meiryo_MSFontService,sans-serif" font-style="normal" font-variant="normal" font-weight="400" font-stretch="normal" font-size="83" text-anchor="start" direction="ltr" writing-mode="lr-tb" unicode-bidi="normal" text-decoration="none" transform="matrix(1 0 0 1 3372.53 1182)">レーダー</text><path d="M0 0 39.4448 0 39.4448 31.1847" stroke="#000000" stroke-width="10.3125" stroke-linecap="butt" stroke-linejoin="round" stroke-miterlimit="10" stroke-opacity="1" fill="none" fill-rule="evenodd" transform="matrix(1.83697e-16 1 1 -1.83697e-16 2963 793)"/><path d="M0 0 47.5519 0 47.5519 34.9478" stroke="#000000" stroke-width="10.3125" stroke-linecap="butt" stroke-linejoin="round" stroke-miterlimit="10" stroke-opacity="1" fill="none" fill-rule="evenodd" transform="matrix(1.83697e-16 1 1 -1.83697e-16 3153 899)"/><path d="M0 0 39.1442 0 39.1442 35.8074" stroke="#000000" stroke-width="10.3125" stroke-linecap="butt" stroke-linejoin="round" stroke-miterlimit="10" stroke-opacity="1" fill="none" fill-rule="evenodd" transform="matrix(1.83697e-16 1 1 -1.83697e-16 3304 1013)"/><path d="M0 0 149.144 0 149.144 35.2343" stroke="#000000" stroke-width="10.3125" stroke-linecap="butt" stroke-linejoin="round" stroke-miterlimit="10" stroke-opacity="1" fill="none" fill-rule="evenodd" transform="matrix(1.83697e-16 1 1 -1.83697e-16 3304 1013)"/><text fill="#000000" fill-opacity="1" font-family="Meiryo,Meiryo_MSFontService,sans-serif" font-style="normal" font-variant="normal" font-weight="400" font-stretch="normal" font-size="83" text-anchor="start" direction="ltr" writing-mode="lr-tb" unicode-bidi="normal" text-decoration="none" transform="matrix(1 0 0 1 2879.25 747)">もの</text><path d="M0 0 70.6548 0 70.6548 118.88" stroke="#000000" stroke-width="10.3125" stroke-linecap="butt" stroke-linejoin="round" stroke-miterlimit="10" stroke-opacity="1" fill="none" fill-rule="evenodd" transform="matrix(1.83697e-16 1 1 -1.83697e-16 2727 656)"/><text fill="#000000" fill-opacity="1" font-family="Meiryo,Meiryo_MSFontService,sans-serif" font-style="normal" font-variant="normal" font-weight="400" font-stretch="normal" font-size="83" text-anchor="start" direction="ltr" writing-mode="lr-tb" unicode-bidi="normal" text-decoration="none" transform="matrix(1 0 0 1 3054.56 1237)">抽象物</text><text fill="#000000" fill-opacity="1" font-family="Meiryo,Meiryo_MSFontService,sans-serif" font-style="normal" font-variant="normal" font-weight="400" font-stretch="normal" font-size="83" text-anchor="start" direction="ltr" writing-mode="lr-tb" unicode-bidi="normal" text-decoration="none" transform="matrix(1 0 0 1 3402.96 1486)">モデル情報</text><text fill="#000000" fill-opacity="1" font-family="Meiryo,Meiryo_MSFontService,sans-serif" font-style="normal" font-variant="normal" font-weight="400" font-stretch="normal" font-size="83" text-anchor="start" direction="ltr" writing-mode="lr-tb" unicode-bidi="normal" text-decoration="none" transform="matrix(1 0 0 1 3405.25 1624)">計器情報</text><path d="M0 0 75.0519 0 75.0519 31.5106" stroke="#000000" stroke-width="10.3125" stroke-linecap="butt" stroke-linejoin="round" stroke-miterlimit="10" stroke-opacity="1" fill="none" fill-rule="evenodd" transform="matrix(1.83697e-16 1 1 -1.83697e-16 3180 1284)"/><path d="M0 0 40.4171 0 40.4171 41.6004" stroke="#000000" stroke-width="10.3125" stroke-linecap="butt" stroke-linejoin="round" stroke-miterlimit="10" stroke-opacity="1" fill="none" fill-rule="evenodd" transform="matrix(1.83697e-16 1 1 -1.83697e-16 3328 1426)"/><path d="M0 0 178.017 0 178.017 43.8921" stroke="#000000" stroke-width="10.3125" stroke-linecap="butt" stroke-linejoin="round" stroke-miterlimit="10" stroke-opacity="1" fill="none" fill-rule="evenodd" transform="matrix(1.83697e-16 1 1 -1.83697e-16 3328 1426)"/><text fill="#000000" fill-opacity="1" font-family="Meiryo,Meiryo_MSFontService,sans-serif" font-style="normal" font-variant="normal" font-weight="400" font-stretch="normal" font-size="83" text-anchor="start" direction="ltr" writing-mode="lr-tb" unicode-bidi="normal" text-decoration="none" transform="matrix(1 0 0 1 3687.7 1761)">ゲージ情報</text><path d="M0 0 70.6552 0 70.6552 82.4996" stroke="#000000" stroke-width="10.3125" stroke-linecap="butt" stroke-linejoin="round" stroke-miterlimit="10" stroke-opacity="1" fill="none" fill-rule="evenodd" transform="matrix(1.83697e-16 1 1 -1.83697e-16 3572 1671)"/><path d="M0 0 424.445 0 424.445 58.6847" stroke="#000000" stroke-width="10.3125" stroke-linecap="butt" stroke-linejoin="round" stroke-miterlimit="10" stroke-opacity="1" fill="none" fill-rule="evenodd" transform="matrix(1.83697e-16 1 1 -1.83697e-16 2963 793)"/><text fill="#000000" fill-opacity="1" font-family="Meiryo,Meiryo_MSFontService,sans-serif" font-style="normal" font-variant="normal" font-weight="400" font-stretch="normal" font-size="83" text-anchor="start" direction="ltr" writing-mode="lr-tb" unicode-bidi="normal" text-decoration="none" transform="matrix(1 0 0 1 3244.77 1379)">情報</text><text fill="#000000" fill-opacity="1" font-family="Meiryo,Meiryo_MSFontService,sans-serif" font-style="normal" font-variant="normal" font-weight="400" font-stretch="normal" font-size="83" text-anchor="start" direction="ltr" writing-mode="lr-tb" unicode-bidi="normal" text-decoration="none" transform="matrix(1 0 0 1 3687.7 1871)">レーダー情報</text><path d="M0 0 180.655 0 180.655 82.4996" stroke="#000000" stroke-width="10.3125" stroke-linecap="butt" stroke-linejoin="round" stroke-miterlimit="10" stroke-opacity="1" fill="none" fill-rule="evenodd" transform="matrix(1.83697e-16 1 1 -1.83697e-16 3572 1671)"/></g></g></svg>